<?xml version="1.0" encoding="UTF-8" standalone="no"?>
<svg xmlns="http://www.w3.org/2000/svg"
     viewBox="0 0 2758.89 538.00"
     role="img" aria-labelledby="title desc">
  <title>Flux logo lockup (dark vector)</title>
  <desc>Combined vector logo mark and wordmark - dark theme</desc>
  <g transform="translate(-0.0000,-0.0000) scale(0.336250)">
    <ns0:path xmlns:ns0="http://www.w3.org/2000/svg" d="M 760 17.731 C 744.035 18.296, 710.633 21.150, 692 23.540 C 665.337 26.961, 648.805 29.576, 625.500 34.057 C 582.223 42.380, 527.082 58.193, 496.813 70.961 C 495.541 71.498, 490.225 73.570, 485 75.566 C 479.775 77.562, 473.700 79.993, 471.500 80.969 C 469.300 81.944, 463.675 84.429, 459 86.490 C 447.392 91.609, 398.554 116.062, 388.591 121.744 C 367.213 133.937, 343.646 148.728, 330.027 158.500 C 328.494 159.600, 325.048 162.047, 322.370 163.938 C 288.891 187.570, 263.784 209.136, 228.245 244.788 C 179.216 293.974, 148.208 332.815, 117.507 383.500 C 110.393 395.245, 100 413.188, 100 413.725 C 100 413.982, 99.112 415.439, 98.026 416.964 C 95.636 420.319, 75.317 460.284, 72.077 468 C 70.807 471.025, 67.310 479.350, 64.307 486.500 C 54.380 510.134, 42.258 544.343, 33.571 573.234 C 28.241 590.963, 16.944 638.458, 13.528 657.500 C 12.640 662.450, 11.469 668.975, 10.926 672 C 10.383 675.025, 9.515 680.875, 8.998 685 C 8.480 689.125, 7.366 697.599, 6.523 703.831 C 0.136 751.038, 0.593 829.386, 7.599 888 C 13.796 939.854, 25.057 989.232, 42.719 1042 C 55.092 1078.965, 63.136 1100.722, 70.264 1116.500 C 74.539 1125.965, 89.635 1155.849, 94.510 1164.500 C 95.750 1166.700, 99.793 1173.900, 103.494 1180.500 C 126.996 1222.408, 151.847 1257.864, 185.295 1297.210 C 202.509 1317.460, 244.951 1359.919, 265.500 1377.448 C 299.307 1406.287, 330.860 1429.929, 359.506 1447.884 C 368.868 1453.751, 372.734 1456.178, 377.500 1459.179 C 383.659 1463.057, 420.462 1483.053, 430 1487.704 C 490.788 1517.345, 534.525 1533.158, 601 1549.525 C 636.078 1558.162, 680.754 1564.370, 740.950 1568.972 C 770.918 1571.263, 818.473 1569.866, 859 1565.506 C 872.921 1564.008, 909.080 1558.884, 919.500 1556.933 C 922.250 1556.418, 928.325 1555.298, 933 1554.443 C 959.140 1549.662, 1001.104 1538.268, 1039.500 1525.526 C 1063.400 1517.594, 1072.345 1514.067, 1098.500 1502.265 C 1148.738 1479.596, 1186.039 1458.682, 1230.600 1428.198 C 1259.241 1408.605, 1265.984 1403.427, 1298.414 1376.129 C 1308.505 1367.635, 1329.637 1348.198, 1340.231 1337.667 C 1356.735 1321.261, 1388.592 1285.397, 1399.538 1270.902 C 1400.617 1269.472, 1405.550 1262.958, 1410.500 1256.425 C 1415.450 1249.892, 1420.266 1243.412, 1421.202 1242.024 C 1422.139 1240.636, 1424.986 1236.575, 1427.531 1233 C 1441.420 1213.485, 1447.227 1203.939, 1464.943 1171.500 C 1489.043 1127.371, 1499.419 1104.412, 1513.979 1063 C 1525.966 1028.905, 1534.490 1000.766, 1540.485 975.500 C 1542.442 967.250, 1544.457 958.925, 1544.962 957 C 1546.212 952.232, 1552.518 915.158, 1554.487 901 C 1557.430 879.838, 1558.025 874.598, 1559.541 856.500 C 1560.371 846.600, 1561.338 836.475, 1561.691 834 C 1562.551 827.964, 1562.574 765.689, 1561.718 760 C 1561.346 757.525, 1560.586 748.300, 1560.029 739.500 C 1558.718 718.762, 1558.198 712.912, 1556.429 699 C 1551.109 657.141, 1545.790 632.263, 1531.305 581.500 C 1515.068 524.596, 1502.317 491.159, 1480.947 449.450 C 1460.793 410.114, 1430.580 359.989, 1412.564 336 C 1398.730 317.578, 1387.628 303.423, 1381.598 296.515 C 1378.244 292.674, 1374.326 288.174, 1372.892 286.515 C 1362.643 274.666, 1357.111 268.813, 1336.136 247.627 C 1308.002 219.210, 1284.717 198.804, 1256 177.398 C 1242.929 167.655, 1223 153.061, 1217 148.839 C 1205.395 140.673, 1162.814 114.916, 1152.500 109.823 C 1150.850 109.008, 1145.450 106.276, 1140.500 103.752 C 1060.542 62.972, 979.369 38.320, 883 25.548 C 843.537 20.318, 787.512 16.757, 760 17.731 M 698.093 128.096 C 678.247 130.357, 654.392 134.228, 639.500 137.604 C 613.725 143.448, 591.109 149.393, 575 154.559 C 527.017 169.948, 496.849 182.002, 467 197.712 C 434.123 215.015, 410.782 228.955, 394.500 241.010 C 385.709 247.519, 351 277.012, 351 277.972 C 351 278.852, 434.361 319.888, 444 323.753 C 459.808 330.092, 482.420 337.844, 532.401 354.056 C 538.987 356.193, 539.071 356.156, 542.657 349.500 C 544.470 346.133, 560.466 321.980, 569.477 309 C 597.947 267.992, 628.815 227.055, 649.781 202.500 C 654.946 196.450, 662.396 187.706, 666.336 183.068 C 670.276 178.430, 683.292 164.270, 695.261 151.601 C 707.230 138.932, 716.876 128.129, 716.699 127.596 C 716.197 126.090, 715.547 126.108, 698.093 128.096 M 853.669 131.802 L 847.838 132.105 830.669 146.920 C 811.448 163.507, 765.148 209.027, 751.448 224.807 C 731.193 248.138, 715.973 266.376, 707.474 277.500 C 703.693 282.450, 695.177 293.477, 688.549 302.004 C 676.645 317.322, 673.629 321.319, 662.903 336 C 651.861 351.113, 636 377.239, 636 380.313 C 636 381.348, 636.794 382, 638.054 382 C 639.184 382, 644.021 383.069, 648.804 384.377 C 653.587 385.684, 662.675 387.961, 669 389.438 C 675.325 390.915, 685.675 393.406, 692 394.973 C 698.325 396.540, 710.700 399.236, 719.500 400.964 C 728.300 402.692, 739.775 404.960, 745 406.004 C 775.882 412.174, 797.859 415.374, 841 419.985 C 901.212 426.420, 923.941 427.692, 982.003 427.876 C 1032.638 428.037, 1059.255 426.911, 1088 423.391 C 1094.875 422.550, 1103.997 421.609, 1108.271 421.301 C 1116.125 420.735, 1117.962 419.903, 1116.211 417.706 C 1115.683 417.043, 1112.194 410.425, 1108.458 403 C 1090.014 366.340, 1072.561 337.303, 1054.685 313.535 C 1027.017 276.746, 1011.135 257.414, 986.388 230.401 C 957.139 198.473, 929.300 174.570, 886.500 144.636 C 869.864 133.002, 865.259 131.201, 853.669 131.802 M 1068 181.013 C 1068 181.570, 1072.642 187.532, 1078.315 194.263 C 1088.828 206.735, 1109.348 233.464, 1117 244.653 C 1117.825 245.859, 1126.659 258.243, 1136.632 272.173 C 1171.120 320.348, 1183.900 341.454, 1207.533 389.265 C 1213.442 401.219, 1218.727 411, 1219.277 411 C 1221.192 411, 1243.576 406.982, 1255 404.587 C 1291.068 397.027, 1297.096 395.692, 1303.154 393.919 C 1310.895 391.655, 1318.659 388.361, 1319.512 386.980 C 1320.193 385.878, 1316.827 380.732, 1306.118 366.500 C 1286.046 339.827, 1259.902 313.021, 1225 283.329 C 1191.619 254.930, 1120.415 206.278, 1089.623 190.828 C 1086.255 189.139, 1080.496 186.011, 1076.826 183.878 C 1069.961 179.889, 1068 179.253, 1068 181.013 M 268.351 355.750 C 252.601 373.542, 234.752 395.924, 226.285 408.500 C 199.658 448.047, 178.747 483.471, 170.798 502.500 C 168.266 508.560, 162.229 522.703, 159.059 530 C 128.395 600.588, 115.743 650.751, 108.994 728.500 C 108.421 735.100, 107.851 741.400, 107.726 742.500 C 107.503 744.472, 108.170 744.504, 155 744.769 C 182.647 744.925, 203.712 745.448, 205.399 746.019 C 206.994 746.558, 210.491 747, 213.172 747 C 219.163 747, 217.351 748.556, 257.500 708.916 C 274 692.625, 292.308 674.944, 298.184 669.626 C 304.060 664.307, 315.803 652.428, 324.279 643.228 C 332.756 634.028, 350.408 616.150, 363.507 603.500 C 376.606 590.850, 405.152 562.725, 426.941 541 C 465.605 502.450, 466.669 501.284, 471.204 492.500 C 473.759 487.550, 476.968 480.575, 478.335 477 C 479.702 473.425, 483.336 464.427, 486.410 457.005 C 489.485 449.582, 492 442.806, 492 441.945 C 492 440.975, 490.198 439.764, 487.250 438.755 C 454.829 427.649, 420.393 414.382, 403.330 406.424 C 397.923 403.903, 384.275 398.040, 373 393.397 C 361.725 388.753, 350.700 384.125, 348.500 383.112 C 346.300 382.099, 340.675 379.527, 336 377.396 C 331.325 375.264, 316.121 367.779, 302.213 360.760 C 288.305 353.742, 276.541 348, 276.069 348 C 275.598 348, 272.125 351.488, 268.351 355.750 M 596 470.357 C 596 471.657, 600.678 476.885, 627.294 505.326 C 638.430 517.226, 651.915 529.902, 686.129 560.633 C 706.564 578.987, 731.900 603.964, 755.696 629.213 C 767.469 641.706, 790.691 664.922, 807.301 680.806 C 823.910 696.689, 845.150 718.118, 854.500 728.425 L 871.500 747.164 927.500 746.478 C 958.300 746.101, 1033 745.501, 1093.500 745.146 L 1203.500 744.500 1203.363 721 C 1203.217 696.019, 1201.474 677.995, 1196.400 649 C 1186.718 593.672, 1179.921 568.869, 1162.741 526.179 L 1156.575 510.857 1153.538 511.404 C 1142.148 513.454, 1088.238 518.232, 1056.500 520.005 C 1046.600 520.558, 1034.900 521.327, 1030.500 521.714 C 1026.100 522.101, 1004.275 522.416, 982 522.414 C 901.644 522.409, 823.968 514.936, 739 499.035 C 733.225 497.954, 722.200 495.907, 714.500 494.486 C 691.515 490.243, 664.773 485.054, 660.500 484.006 C 658.300 483.467, 646.375 480.782, 634 478.041 C 621.625 475.299, 608.243 472.144, 604.263 471.028 C 595.673 468.621, 596 468.648, 596 470.357 M 1371.738 472.595 C 1369.770 474.563, 1337.276 482.185, 1306 488.014 C 1262.402 496.141, 1257.444 497.010, 1254.750 497.005 C 1253.237 497.002, 1252 497.371, 1252 497.825 C 1252 498.279, 1253.138 501.991, 1254.528 506.075 C 1255.918 510.159, 1259.101 520.475, 1261.600 529 C 1264.100 537.525, 1268.100 550.800, 1270.490 558.500 C 1277.440 580.890, 1281.556 599.269, 1287.961 636.500 C 1291.714 658.317, 1295.828 694.396, 1297.950 724.110 C 1298.524 732.145, 1299.271 740.106, 1299.610 741.802 L 1300.227 744.884 1364.363 744.414 C 1399.639 744.156, 1434.509 743.683, 1441.852 743.364 L 1455.204 742.784 1454.556 731.642 C 1453.603 715.254, 1452.067 697.332, 1451.030 690.500 C 1450.529 687.200, 1449.597 680.900, 1448.959 676.500 C 1442.265 630.342, 1423.631 569.029, 1402.308 523 C 1399.334 516.580, 1384.625 487.325, 1379.813 478.258 C 1377.378 473.670, 1375.948 472.014, 1374.417 472.008 C 1373.271 472.004, 1372.066 472.268, 1371.738 472.595 M 198.352 834.628 C 197.721 834.887, 177.021 835.414, 152.352 835.799 L 107.500 836.500 107.199 842.302 C 106.562 854.557, 112.596 904.788, 117.553 928.500 C 122.052 950.017, 128.037 972.724, 138.112 1006.500 C 149.246 1043.823, 169.537 1087.066, 201.929 1142.500 C 216.754 1167.871, 244.582 1205.757, 265.705 1229.328 L 269.136 1233.156 273.818 1230.931 C 276.393 1229.708, 281.650 1227.253, 285.500 1225.477 C 289.350 1223.701, 301.050 1218.085, 311.500 1212.997 C 340.646 1198.805, 361.128 1189, 361.630 1189 C 361.879 1189, 364.877 1187.707, 368.292 1186.127 C 399.738 1171.575, 425.328 1161.719, 471.377 1146.426 C 486.160 1141.517, 498.474 1136.929, 498.742 1136.230 C 499.763 1133.568, 485.468 1107.629, 476.554 1095.970 C 470.138 1087.578, 415.712 1032.592, 397.036 1015.634 C 356.445 978.777, 311.804 934.756, 297.013 917 C 291.286 910.125, 277.353 895.047, 266.050 883.492 C 254.748 871.938, 242.827 859.113, 239.560 854.992 C 230.301 843.315, 226.957 840.134, 220.593 836.954 C 215.530 834.424, 213.590 834.011, 207.090 834.079 C 202.916 834.122, 198.983 834.370, 198.352 834.628 M 1300.510 837.250 C 1300.275 837.938, 1299.363 849.906, 1298.484 863.846 C 1295.967 903.727, 1291.453 937.921, 1283.876 974.500 C 1279.417 996.032, 1274.729 1015.927, 1271.977 1025 C 1270.392 1030.225, 1266.648 1042.600, 1263.657 1052.500 C 1260.666 1062.400, 1257.270 1073.387, 1256.109 1076.915 C 1254.949 1080.443, 1254 1083.899, 1254 1084.593 C 1254 1085.385, 1256.145 1086.111, 1259.750 1086.538 C 1262.912 1086.913, 1268.251 1087.841, 1271.613 1088.600 C 1278.894 1090.244, 1309.812 1095.324, 1322.500 1096.962 C 1334.788 1098.548, 1356.474 1102.635, 1368.181 1105.572 C 1373.506 1106.907, 1378.276 1108, 1378.781 1108 C 1379.601 1108, 1404 1062.245, 1404 1060.706 C 1404 1060.360, 1405.528 1056.797, 1407.395 1052.788 C 1420.396 1024.878, 1431.351 993.015, 1439.470 959.500 C 1445.087 936.310, 1450.582 905.525, 1452.500 886.500 C 1453.317 878.391, 1455.875 838.558, 1455.597 838.271 C 1453.253 835.849, 1301.331 834.849, 1300.510 837.250 M 892 838.969 L 871.500 839.500 854.500 857 C 845.150 866.625, 831.441 880.125, 824.035 887 C 816.630 893.875, 789.180 920.686, 763.035 946.579 C 736.891 972.473, 709.875 998.771, 703 1005.021 C 669.684 1035.304, 623.573 1081.506, 605.344 1102.870 C 598.389 1111.022, 598.126 1113.441, 604.444 1111.156 C 606.337 1110.472, 612.075 1109.064, 617.193 1108.027 C 622.312 1106.991, 633.925 1104.520, 643 1102.536 C 661.866 1098.412, 675.544 1095.731, 692 1092.932 C 698.325 1091.857, 708.225 1090.074, 714 1088.970 C 719.775 1087.866, 728.550 1086.337, 733.500 1085.571 C 738.450 1084.805, 751.500 1082.769, 762.500 1081.046 C 832.528 1070.077, 872.360 1065.126, 904 1063.460 C 910.325 1063.126, 916.850 1062.691, 918.500 1062.491 C 920.150 1062.292, 941.075 1061.567, 965 1060.879 C 1009.041 1059.614, 1069.280 1060.568, 1099.671 1063.012 C 1124.871 1065.038, 1136.850 1066.230, 1145.872 1067.610 C 1152.778 1068.666, 1155.596 1068.750, 1156.582 1067.932 C 1159.133 1065.815, 1167.860 1041.001, 1179.418 1003 C 1185.142 984.180, 1193.512 944.787, 1197.478 918 C 1202.453 884.394, 1206.783 842.484, 1205.599 839.397 C 1205.143 838.209, 1183.220 838.033, 1058.781 838.219 C 978.327 838.340, 903.275 838.677, 892 838.969 M 919.500 1156.029 C 915.100 1156.463, 904.075 1157.328, 895 1157.952 C 857.232 1160.547, 827.337 1163.593, 806.500 1166.966 C 799.900 1168.035, 792.475 1169.180, 790 1169.510 C 787.525 1169.841, 780.550 1170.983, 774.500 1172.048 C 768.450 1173.112, 755.175 1175.352, 745 1177.025 C 717.985 1181.466, 687.579 1187.725, 650.538 1196.468 C 642.309 1198.411, 635.446 1200, 635.288 1200 C 634.217 1200, 635.435 1203.701, 637.834 1207.735 C 639.392 1210.356, 643.468 1217.225, 646.892 1223 C 653.745 1234.560, 681.493 1274.848, 695.289 1293.271 C 722.226 1329.241, 774.498 1385.387, 821.500 1428.837 C 831.400 1437.989, 841.660 1447.491, 844.299 1449.951 C 852.206 1457.321, 853.720 1458.031, 860.500 1457.546 C 874.097 1456.573, 876.315 1455.667, 890.352 1445.346 C 920.072 1423.494, 949.399 1398.375, 964.212 1382.086 C 968.221 1377.679, 976.936 1368.094, 983.580 1360.786 C 997.918 1345.017, 1018.283 1320.569, 1029.718 1305.401 C 1062.401 1262.047, 1076.457 1241.120, 1101.385 1198.707 C 1106.392 1190.187, 1119 1165.782, 1119 1164.610 C 1119 1163.311, 1114.213 1162.530, 1090.500 1159.958 C 1056.334 1156.254, 1043.409 1155.699, 986 1155.472 C 953.825 1155.345, 923.900 1155.595, 919.500 1156.029 M 1217.086 1185.296 C 1211.738 1196.446, 1198.033 1222.422, 1193.500 1230 C 1191.690 1233.025, 1187.443 1240.225, 1184.061 1246 C 1173.680 1263.727, 1153.755 1293.425, 1135.311 1318.661 C 1114.534 1347.091, 1104.310 1360.122, 1078.250 1391.384 C 1073.713 1396.827, 1070 1401.668, 1070 1402.140 C 1070 1404.060, 1073.351 1402.730, 1081.215 1397.690 C 1085.772 1394.770, 1094.900 1389.289, 1101.500 1385.510 C 1148.970 1358.331, 1181.822 1336.631, 1207.500 1315.492 C 1214.650 1309.606, 1223.539 1302.342, 1227.253 1299.350 C 1230.967 1296.358, 1234.792 1293.114, 1235.753 1292.141 C 1236.714 1291.168, 1240.911 1287.622, 1245.080 1284.261 C 1261.656 1270.897, 1291.482 1239.333, 1309.650 1215.931 C 1315.761 1208.058, 1326 1192.657, 1326 1191.337 C 1326 1190.819, 1323.638 1189.862, 1320.750 1189.210 C 1308.852 1186.525, 1277.523 1181.064, 1268.344 1180.076 C 1255.058 1178.646, 1225.297 1175.989, 1223.194 1176.046 C 1222.062 1176.076, 1220.035 1179.145, 1217.086 1185.296 M 532 1228.597 C 528.425 1229.918, 515.375 1234.439, 503 1238.643 C 471.633 1249.298, 457.555 1254.159, 442.500 1259.530 C 435.350 1262.081, 428.375 1264.526, 427 1264.963 C 423.032 1266.225, 408.097 1272.592, 401.124 1275.995 C 397.617 1277.706, 389.742 1281.359, 383.624 1284.112 C 370.764 1289.899, 356.827 1297.268, 352.496 1300.571 C 350.843 1301.832, 348.256 1303.333, 346.746 1303.907 C 341.830 1305.776, 341.590 1305.494, 362.898 1322.894 C 380.944 1337.630, 412.937 1359.928, 433 1371.752 C 459.401 1387.312, 508.507 1409.854, 542.500 1422.018 C 596.331 1441.282, 621.854 1448.395, 662.500 1455.462 C 682.914 1459.011, 714.222 1461.721, 716.741 1460.157 C 717.343 1459.783, 711.141 1452.607, 702.345 1443.500 C 685.798 1426.370, 660.231 1397.197, 648.885 1382.500 C 645.063 1377.550, 635.855 1365.850, 628.422 1356.500 C 614.381 1338.839, 604.040 1324.350, 586.668 1298 C 581.048 1289.475, 573.966 1278.900, 570.932 1274.500 C 564.124 1264.631, 554.097 1248.663, 546.597 1235.750 C 543.483 1230.388, 540.387 1226.044, 539.717 1226.097 C 539.048 1226.150, 535.575 1227.275, 532 1228.597" stroke="none" fill="#bacaff" fill-rule="evenodd" />

  </g>
  <g transform="translate(605.8950,-0.0000)">
    <ns0:path xmlns:ns0="http://www.w3.org/2000/svg" fill="#FFFFFF" opacity="1.000000" stroke="none" d=" M1316.978516,538.553955   C879.833313,539.000000 442.666656,538.998413 5.500003,539.034912   C2.564454,539.035156 -0.141577,539.304993 1.000000,534.500000   C3.413025,531.953613 6.347527,532.408203 9.137691,532.402771   C30.470867,532.361267 51.804150,532.390381 73.137390,532.376526   C81.340897,532.371155 81.374664,532.344543 81.375771,523.950317   C81.384804,455.617279 81.379044,387.284210 81.381645,318.951172   C81.382126,306.387451 81.387474,306.382080 93.717491,306.381683   C160.050552,306.379456 226.383606,306.380676 292.716675,306.380585   C294.049988,306.380585 295.383484,306.394135 296.716614,306.375519   C303.087677,306.286591 303.358124,306.055695 303.369232,299.466827   C303.400116,281.133636 303.396515,262.800293 303.371857,244.467087   C303.361664,236.896439 303.102234,236.629883 295.489868,236.628052   C228.490143,236.611954 161.490417,236.621399 94.490685,236.618515   C81.386780,236.617950 81.382202,236.613388 81.381538,223.709961   C81.379234,179.043472 81.379028,134.376999 81.381699,89.710510   C81.382439,77.386269 81.387833,77.381714 93.952301,77.381439   C173.618637,77.379707 253.284988,77.382034 332.951324,77.378899   C342.370758,77.378532 342.376862,77.368401 342.379272,68.135078   C342.384399,48.635159 342.365479,29.135218 342.397705,9.635349   C342.402069,6.992679 342.050812,4.276516 343.697693,1.396133   C419.687561,1.000000 495.375122,1.000000 571.531372,1.000000   C573.466614,2.613875 573.538208,4.627171 573.591797,6.635828   C573.654114,8.968040 573.622803,11.301393 573.622803,13.634253   C573.623657,183.436432 573.622803,353.238586 573.625610,523.040771   C573.625793,534.230591 573.203735,533.367798 583.952515,533.369019   C690.599609,533.381104 797.246704,533.376953 903.893799,533.375488   C913.370667,533.375366 913.374512,533.369690 913.375610,523.742859   C913.377686,505.079620 913.390564,486.416412 913.369263,467.753174   C913.360229,459.831055 913.162720,459.630341 905.263855,459.629303   C825.445190,459.619049 745.626465,459.624451 665.807800,459.622803   C652.379883,459.622498 652.377014,459.619476 652.376892,446.029175   C652.376099,301.222412 652.372437,156.415665 652.401123,11.608908   C652.401794,8.323101 651.829956,4.940046 653.695923,1.397747   C818.687561,1.000000 983.375183,1.000000 1148.531372,1.000000   C1151.016479,3.445909 1150.443726,6.384792 1150.445557,9.161840   C1150.478760,57.790203 1150.468750,106.418594 1150.468994,155.046982   C1150.469360,224.991928 1149.807007,294.945496 1150.718872,364.878540   C1151.260620,406.424805 1164.513428,444.006805 1192.878906,475.384613   C1224.976685,510.891052 1264.969360,530.956909 1312.375366,536.544312   C1314.018677,536.738098 1315.738647,536.680359 1316.978516,538.553955  z" />
<ns0:path xmlns:ns0="http://www.w3.org/2000/svg" fill="#FEFEFF" opacity="1.000000" stroke="none" d=" M1528.733887,1.356980   C1601.020874,1.000000 1673.041870,1.000000 1745.531372,1.000000   C1747.999146,2.079640 1749.140259,3.903424 1750.241089,5.791759   C1774.994995,48.247410 1800.142334,90.471382 1825.044434,132.839706   C1849.102783,173.772491 1873.258667,214.647751 1897.375977,255.545639   C1899.671875,259.439087 1899.294922,262.474792 1897.139404,266.142456   C1880.255127,294.871826 1862.859131,323.294220 1845.818726,351.929596   C1810.971436,410.488953 1775.986572,468.966156 1740.925903,527.397949   C1740.754395,527.683777 1740.574707,527.964600 1740.408325,528.253235   C1737.508667,533.283020 1737.735718,533.737854 1743.420532,533.741699   C1768.080811,533.758484 1792.741089,533.748230 1817.401367,533.749329   C1823.481079,533.749573 1823.411133,533.710388 1826.554321,528.438904   C1848.137207,492.241455 1869.865234,456.130066 1891.410767,419.910980   C1917.897339,375.386139 1944.775146,331.094879 1971.015259,286.422913   C1974.978638,279.675446 1978.985352,272.933014 1983.287109,266.404602   C1985.843750,262.524628 1985.894531,259.520660 1983.485718,255.509155   C1967.620239,229.087219 1952.059937,202.482391 1936.436890,175.916092   C1903.417847,119.768898 1870.287598,63.687378 1837.209473,7.575061   C1836.130493,5.744863 1834.635986,3.983876 1835.770142,1.290391   C1907.020874,1.000000 1978.041626,1.000000 2049.531250,1.000000   C2050.848389,3.226400 2049.385010,4.833560 2048.423096,6.509540   C2030.017700,38.581848 2011.638184,70.669395 1993.071899,102.648766   C1990.571289,106.956017 1990.182739,110.601868 1992.832642,115.133560   C2005.444336,136.701141 2017.882690,158.371078 2030.375244,180.008850   C2030.935791,180.979553 2031.273682,182.191956 2032.788330,182.686234   C2034.375244,181.352341 2035.383179,179.447647 2036.423706,177.615280   C2050.152344,153.440567 2064.137451,129.413467 2077.977051,105.303345   C2089.905029,84.523758 2101.930420,63.798531 2113.690186,42.921818   C2120.549561,30.744558 2127.833496,18.810471 2134.559570,6.554728   C2135.581299,4.692878 2136.425293,2.602437 2138.709717,1.216007   C2143.332031,1.000000 2147.667969,1.108380 2151.993896,0.946620   C2153.723145,0.881959 2154.351074,1.238486 2154.025391,2.999170   C2153.876465,3.804689 2154.000000,4.660601 2154.000000,5.493663   C2154.000000,181.769699 2153.980225,358.045776 2154.120605,534.321655   C2154.124023,538.524780 2153.087891,539.102539 2149.181396,539.100891   C1886.766724,538.989441 1624.351929,539.000000 1361.468628,539.000000   C1361.352051,536.342102 1363.585205,536.796631 1365.237427,536.607483   C1404.813965,532.076904 1439.708740,516.880249 1469.625854,490.553406   C1501.344727,462.641113 1519.706055,427.520111 1525.492432,385.746368   C1526.910278,375.510437 1527.586792,365.241333 1527.579956,354.884491   C1527.503296,240.107605 1527.527100,125.330658 1527.556030,10.553735   C1527.556763,7.594567 1527.001465,4.538319 1528.733887,1.356980  z" />
<ns0:path xmlns:ns0="http://www.w3.org/2000/svg" fill="#E9EEFF" opacity="1.000000" stroke="none" d=" M1528.531372,1.000000   C1529.000000,122.573921 1529.550415,244.151779 1528.681519,365.719482   C1528.402588,404.747559 1515.845337,440.611755 1490.372192,471.151489   C1467.349487,498.753662 1438.720703,518.147095 1404.710693,529.576355   C1390.714355,534.279968 1376.279541,537.101440 1361.280762,538.705627   C1346.645752,539.000000 1332.291504,539.000000 1317.468628,539.000000   C1311.191284,537.047424 1305.040527,537.220764 1299.076294,536.141724   C1270.322266,530.939148 1244.031982,519.988342 1220.533447,502.686157   C1183.822021,475.655304 1160.535522,439.899231 1152.244751,394.875427   C1150.120728,383.340454 1148.915039,371.650482 1148.927002,359.812073   C1149.046875,240.520569 1149.000000,121.228920 1149.000000,1.468657   C1176.020874,1.000000 1203.041870,1.000000 1230.531372,1.000000   C1233.203125,3.772891 1232.482178,7.061763 1232.483154,10.160222   C1232.518066,122.493263 1232.543213,234.826324 1232.468872,347.159332   C1232.460693,359.591675 1233.998413,371.747284 1237.259521,383.710449   C1245.562988,414.171173 1264.971313,435.210022 1293.679443,447.034424   C1324.310059,459.650635 1355.615479,459.543121 1386.094360,446.221191   C1416.554932,432.907318 1435.372192,409.470459 1442.344482,376.837860   C1444.470459,366.887146 1445.544067,356.812531 1445.536865,346.577972   C1445.458130,234.578293 1445.483521,122.578560 1445.510498,10.578842   C1445.511230,7.616587 1444.981445,4.559890 1446.724121,1.368647   C1474.020874,1.000000 1501.041870,1.000000 1528.531372,1.000000  z" />
<ns0:path xmlns:ns0="http://www.w3.org/2000/svg" fill="#FFFFFF" opacity="1.000000" stroke="none" d=" M1446.531372,1.000000   C1447.000000,118.634392 1447.350342,236.270584 1446.744629,353.901855   C1446.599976,382.011627 1437.649902,407.938416 1416.456665,427.896698   C1399.727417,443.651123 1379.867676,453.430420 1356.791138,456.048340   C1334.884644,458.533508 1313.401001,457.502930 1292.848755,448.458893   C1262.867798,435.265747 1243.002686,413.402222 1235.023926,381.279694   C1232.214355,369.968658 1230.938110,358.525452 1230.947021,346.842041   C1231.034668,231.873856 1231.000000,116.905563 1231.000000,1.468657   C1302.687622,1.000000 1374.375122,1.000000 1446.531372,1.000000  z" />
<ns0:path xmlns:ns0="http://www.w3.org/2000/svg" fill="#E9EEFF" opacity="1.000000" stroke="none" d=" M343.531342,1.000000   C344.000000,24.997202 343.869751,48.995708 344.110260,72.990501   C344.158173,77.769028 342.897217,79.115334 338.050049,79.106644   C255.226624,78.958076 172.402863,78.999657 89.579178,79.000633   C83.006622,79.000717 83.001099,79.004913 83.000885,85.378944   C82.999268,133.206696 83.094215,181.034897 82.866379,228.861572   C82.841301,234.126495 84.425629,235.117172 89.320625,235.106262   C159.145477,234.950485 228.970947,235.059708 298.795654,234.877258   C303.924500,234.863876 305.196320,236.218399 305.122864,241.255920   C304.826447,261.582581 304.865051,281.917664 305.103516,302.245819   C305.157043,306.809662 303.938232,308.112915 299.294464,308.103027   C229.469574,307.954285 159.644272,307.999756 89.819077,308.000427   C83.004372,308.000488 83.000656,308.003052 83.000572,314.638916   C82.999649,385.630646 83.000504,456.622345 82.999146,527.614075   C82.999023,533.995056 82.993431,533.998901 76.427727,533.999329   C51.597588,534.001038 26.767452,534.000000 1.468657,534.000000   C1.000000,357.921326 1.017296,181.842621 0.890985,5.764026   C0.888102,1.745261 1.643278,0.880379 5.731453,0.885577   C118.175064,1.028545 230.618896,1.000000 343.531342,1.000000  z" />
<ns0:path xmlns:ns0="http://www.w3.org/2000/svg" fill="#E9EEFF" opacity="1.000000" stroke="none" d=" M653.531372,1.000000   C654.000000,150.975296 653.999939,300.950592 654.000244,450.925903   C654.000305,457.997223 654.002014,457.999634 660.883240,457.999664   C743.536316,458.000244 826.189453,458.054108 908.842102,457.872070   C914.063782,457.860565 915.175964,459.358826 915.115479,464.301361   C914.848267,486.127838 914.894958,507.960388 915.091675,529.788330   C915.129333,533.973633 913.882385,535.087280 909.753052,535.083374   C798.938049,534.978638 688.122864,534.956604 577.308044,535.132385   C571.958374,535.140869 571.949829,532.764038 571.951111,528.850342   C572.007507,353.212677 572.000000,177.574997 572.000000,1.468657   C599.020874,1.000000 626.041809,1.000000 653.531372,1.000000  z" />
<ns0:path xmlns:ns0="http://www.w3.org/2000/svg" fill="#E9EEFF" opacity="1.000000" stroke="none" d=" M1835.531372,1.000000   C1835.777344,3.932722 1837.752563,5.924575 1839.090210,8.182913   C1856.324097,37.277939 1873.692139,66.294434 1890.758057,95.487587   C1902.132690,114.945084 1913.761841,134.252655 1925.121338,153.712860   C1943.240967,184.753647 1961.338623,215.804230 1979.876709,246.597382   C1982.184570,250.430832 1984.265137,254.405289 1986.671143,258.173889   C1988.107422,260.423859 1987.326416,262.079773 1986.148315,264.034149   C1976.448608,280.125244 1966.795898,296.244873 1957.173096,312.382172   C1947.403198,328.766174 1937.720337,345.202209 1927.931641,361.574951   C1917.416016,379.163086 1906.801270,396.691864 1896.266724,414.268677   C1881.373291,439.118408 1866.482178,463.969604 1851.651611,488.856903   C1843.318237,502.841095 1834.578491,516.627441 1827.165405,531.089050   C1824.928955,535.452026 1822.664307,534.976013 1819.550659,534.979797   C1793.388794,535.011292 1767.226929,535.003296 1741.065063,534.992981   C1735.503784,534.990784 1735.232544,534.804565 1738.077515,529.961792   C1748.502930,512.215637 1759.112305,494.577393 1769.676025,476.912628   C1786.627808,448.565674 1803.596924,420.229004 1820.561523,391.889679   C1841.447632,356.999451 1862.344482,322.115601 1883.218018,287.217896   C1887.904175,279.383331 1892.475098,271.479858 1897.181763,263.657837   C1898.537109,261.405365 1898.384033,259.691254 1896.977051,257.320068   C1880.628052,229.768341 1864.488403,202.092468 1848.213867,174.496323   C1834.723877,151.621780 1821.073242,128.841858 1807.593018,105.961472   C1791.414185,78.500366 1775.347656,50.973133 1759.216919,23.483614   C1754.932739,16.182646 1750.591187,8.915290 1746.137939,1.316268   C1775.687622,1.000000 1805.375122,1.000000 1835.531372,1.000000  z" />
<ns0:path xmlns:ns0="http://www.w3.org/2000/svg" fill="#E9EEFF" opacity="1.000000" stroke="none" d=" M2138.531250,0.999996   C2130.491699,16.008783 2121.985107,31.018629 2113.474365,46.026054   C2104.901123,61.143993 2096.398926,76.303093 2087.725342,91.363327   C2079.614258,105.446747 2071.233154,119.374649 2063.128906,133.461929   C2054.613281,148.264359 2046.312988,163.190475 2037.849365,178.023102   C2036.393433,180.574615 2034.592163,182.929062 2032.747925,185.676132   C2028.485718,180.698608 2025.948364,174.933273 2022.832275,169.580765   C2011.993652,150.964325 2001.504272,132.144073 1990.603271,113.564934   C1988.800049,110.491653 1988.746460,108.097939 1990.352173,105.288490   C1997.514648,92.756523 2004.667114,80.218788 2011.848511,67.697617   C2022.908081,48.414368 2033.990356,29.144043 2045.057739,9.865350   C2046.627563,7.130676 2048.169434,4.379924 2049.862061,1.318313   C2079.354248,1.000000 2108.708252,1.000000 2138.531250,0.999996  z" />

  </g>
</svg>
