<?xml version="1.0" encoding="UTF-8" standalone="no"?>
<svg xmlns="http://www.w3.org/2000/svg"
     viewBox="0 0 2758.89 538.00"
     role="img" aria-labelledby="title desc">
  <title>Flux logo lockup (light vector)</title>
  <desc>Combined vector logo mark and wordmark</desc>
  <!-- Normalize mark to text height, and translate to start at x=0 -->
  <g transform="translate(-0.0000,-0.0000) scale(0.336250)">
    <ns0:path xmlns:ns0="http://www.w3.org/2000/svg" d="M 760 17.731 C 744.035 18.296, 710.633 21.150, 692 23.540 C 665.337 26.961, 648.805 29.576, 625.500 34.057 C 582.223 42.380, 527.082 58.193, 496.813 70.961 C 495.541 71.498, 490.225 73.570, 485 75.566 C 479.775 77.562, 473.700 79.993, 471.500 80.969 C 469.300 81.944, 463.675 84.429, 459 86.490 C 447.392 91.609, 398.554 116.062, 388.591 121.744 C 367.213 133.937, 343.646 148.728, 330.027 158.500 C 328.494 159.600, 325.048 162.047, 322.370 163.938 C 288.891 187.570, 263.784 209.136, 228.245 244.788 C 179.216 293.974, 148.208 332.815, 117.507 383.500 C 110.393 395.245, 100 413.188, 100 413.725 C 100 413.982, 99.112 415.439, 98.026 416.964 C 95.636 420.319, 75.317 460.284, 72.077 468 C 70.807 471.025, 67.310 479.350, 64.307 486.500 C 54.380 510.134, 42.258 544.343, 33.571 573.234 C 28.241 590.963, 16.944 638.458, 13.528 657.500 C 12.640 662.450, 11.469 668.975, 10.926 672 C 10.383 675.025, 9.515 680.875, 8.998 685 C 8.480 689.125, 7.366 697.599, 6.523 703.831 C 0.136 751.038, 0.593 829.386, 7.599 888 C 13.796 939.854, 25.057 989.232, 42.719 1042 C 55.092 1078.965, 63.136 1100.722, 70.264 1116.500 C 74.539 1125.965, 89.635 1155.849, 94.510 1164.500 C 95.750 1166.700, 99.793 1173.900, 103.494 1180.500 C 126.996 1222.408, 151.847 1257.864, 185.295 1297.210 C 202.509 1317.460, 244.951 1359.919, 265.500 1377.448 C 299.307 1406.287, 330.860 1429.929, 359.506 1447.884 C 368.868 1453.751, 372.734 1456.178, 377.500 1459.179 C 383.659 1463.057, 420.462 1483.053, 430 1487.704 C 490.788 1517.345, 534.525 1533.158, 601 1549.525 C 636.078 1558.162, 680.754 1564.370, 740.950 1568.972 C 770.918 1571.263, 818.473 1569.866, 859 1565.506 C 872.921 1564.008, 909.080 1558.884, 919.500 1556.933 C 922.250 1556.418, 928.325 1555.298, 933 1554.443 C 959.140 1549.662, 1001.104 1538.268, 1039.500 1525.526 C 1063.400 1517.594, 1072.345 1514.067, 1098.500 1502.265 C 1148.738 1479.596, 1186.039 1458.682, 1230.600 1428.198 C 1259.241 1408.605, 1265.984 1403.427, 1298.414 1376.129 C 1308.505 1367.635, 1329.637 1348.198, 1340.231 1337.667 C 1356.735 1321.261, 1388.592 1285.397, 1399.538 1270.902 C 1400.617 1269.472, 1405.550 1262.958, 1410.500 1256.425 C 1415.450 1249.892, 1420.266 1243.412, 1421.202 1242.024 C 1422.139 1240.636, 1424.986 1236.575, 1427.531 1233 C 1441.420 1213.485, 1447.227 1203.939, 1464.943 1171.500 C 1489.043 1127.371, 1499.419 1104.412, 1513.979 1063 C 1525.966 1028.905, 1534.490 1000.766, 1540.485 975.500 C 1542.442 967.250, 1544.457 958.925, 1544.962 957 C 1546.212 952.232, 1552.518 915.158, 1554.487 901 C 1557.430 879.838, 1558.025 874.598, 1559.541 856.500 C 1560.371 846.600, 1561.338 836.475, 1561.691 834 C 1562.551 827.964, 1562.574 765.689, 1561.718 760 C 1561.346 757.525, 1560.586 748.300, 1560.029 739.500 C 1558.718 718.762, 1558.198 712.912, 1556.429 699 C 1551.109 657.141, 1545.790 632.263, 1531.305 581.500 C 1515.068 524.596, 1502.317 491.159, 1480.947 449.450 C 1460.793 410.114, 1430.580 359.989, 1412.564 336 C 1398.730 317.578, 1387.628 303.423, 1381.598 296.515 C 1378.244 292.674, 1374.326 288.174, 1372.892 286.515 C 1362.643 274.666, 1357.111 268.813, 1336.136 247.627 C 1308.002 219.210, 1284.717 198.804, 1256 177.398 C 1242.929 167.655, 1223 153.061, 1217 148.839 C 1205.395 140.673, 1162.814 114.916, 1152.500 109.823 C 1150.850 109.008, 1145.450 106.276, 1140.500 103.752 C 1060.542 62.972, 979.369 38.320, 883 25.548 C 843.537 20.318, 787.512 16.757, 760 17.731 M 698.093 128.096 C 678.247 130.357, 654.392 134.228, 639.500 137.604 C 613.725 143.448, 591.109 149.393, 575 154.559 C 527.017 169.948, 496.849 182.002, 467 197.712 C 434.123 215.015, 410.782 228.955, 394.500 241.010 C 385.709 247.519, 351 277.012, 351 277.972 C 351 278.852, 434.361 319.888, 444 323.753 C 459.808 330.092, 482.420 337.844, 532.401 354.056 C 538.987 356.193, 539.071 356.156, 542.657 349.500 C 544.470 346.133, 560.466 321.980, 569.477 309 C 597.947 267.992, 628.815 227.055, 649.781 202.500 C 654.946 196.450, 662.396 187.706, 666.336 183.068 C 670.276 178.430, 683.292 164.270, 695.261 151.601 C 707.230 138.932, 716.876 128.129, 716.699 127.596 C 716.197 126.090, 715.547 126.108, 698.093 128.096 M 853.669 131.802 L 847.838 132.105 830.669 146.920 C 811.448 163.507, 765.148 209.027, 751.448 224.807 C 731.193 248.138, 715.973 266.376, 707.474 277.500 C 703.693 282.450, 695.177 293.477, 688.549 302.004 C 676.645 317.322, 673.629 321.319, 662.903 336 C 651.861 351.113, 636 377.239, 636 380.313 C 636 381.348, 636.794 382, 638.054 382 C 639.184 382, 644.021 383.069, 648.804 384.377 C 653.587 385.684, 662.675 387.961, 669 389.438 C 675.325 390.915, 685.675 393.406, 692 394.973 C 698.325 396.540, 710.700 399.236, 719.500 400.964 C 728.300 402.692, 739.775 404.960, 745 406.004 C 775.882 412.174, 797.859 415.374, 841 419.985 C 901.212 426.420, 923.941 427.692, 982.003 427.876 C 1032.638 428.037, 1059.255 426.911, 1088 423.391 C 1094.875 422.550, 1103.997 421.609, 1108.271 421.301 C 1116.125 420.735, 1117.962 419.903, 1116.211 417.706 C 1115.683 417.043, 1112.194 410.425, 1108.458 403 C 1090.014 366.340, 1072.561 337.303, 1054.685 313.535 C 1027.017 276.746, 1011.135 257.414, 986.388 230.401 C 957.139 198.473, 929.300 174.570, 886.500 144.636 C 869.864 133.002, 865.259 131.201, 853.669 131.802 M 1068 181.013 C 1068 181.570, 1072.642 187.532, 1078.315 194.263 C 1088.828 206.735, 1109.348 233.464, 1117 244.653 C 1117.825 245.859, 1126.659 258.243, 1136.632 272.173 C 1171.120 320.348, 1183.900 341.454, 1207.533 389.265 C 1213.442 401.219, 1218.727 411, 1219.277 411 C 1221.192 411, 1243.576 406.982, 1255 404.587 C 1291.068 397.027, 1297.096 395.692, 1303.154 393.919 C 1310.895 391.655, 1318.659 388.361, 1319.512 386.980 C 1320.193 385.878, 1316.827 380.732, 1306.118 366.500 C 1286.046 339.827, 1259.902 313.021, 1225 283.329 C 1191.619 254.930, 1120.415 206.278, 1089.623 190.828 C 1086.255 189.139, 1080.496 186.011, 1076.826 183.878 C 1069.961 179.889, 1068 179.253, 1068 181.013 M 268.351 355.750 C 252.601 373.542, 234.752 395.924, 226.285 408.500 C 199.658 448.047, 178.747 483.471, 170.798 502.500 C 168.266 508.560, 162.229 522.703, 159.059 530 C 128.395 600.588, 115.743 650.751, 108.994 728.500 C 108.421 735.100, 107.851 741.400, 107.726 742.500 C 107.503 744.472, 108.170 744.504, 155 744.769 C 182.647 744.925, 203.712 745.448, 205.399 746.019 C 206.994 746.558, 210.491 747, 213.172 747 C 219.163 747, 217.351 748.556, 257.500 708.916 C 274 692.625, 292.308 674.944, 298.184 669.626 C 304.060 664.307, 315.803 652.428, 324.279 643.228 C 332.756 634.028, 350.408 616.150, 363.507 603.500 C 376.606 590.850, 405.152 562.725, 426.941 541 C 465.605 502.450, 466.669 501.284, 471.204 492.500 C 473.759 487.550, 476.968 480.575, 478.335 477 C 479.702 473.425, 483.336 464.427, 486.410 457.005 C 489.485 449.582, 492 442.806, 492 441.945 C 492 440.975, 490.198 439.764, 487.250 438.755 C 454.829 427.649, 420.393 414.382, 403.330 406.424 C 397.923 403.903, 384.275 398.040, 373 393.397 C 361.725 388.753, 350.700 384.125, 348.500 383.112 C 346.300 382.099, 340.675 379.527, 336 377.396 C 331.325 375.264, 316.121 367.779, 302.213 360.760 C 288.305 353.742, 276.541 348, 276.069 348 C 275.598 348, 272.125 351.488, 268.351 355.750 M 596 470.357 C 596 471.657, 600.678 476.885, 627.294 505.326 C 638.430 517.226, 651.915 529.902, 686.129 560.633 C 706.564 578.987, 731.900 603.964, 755.696 629.213 C 767.469 641.706, 790.691 664.922, 807.301 680.806 C 823.910 696.689, 845.150 718.118, 854.500 728.425 L 871.500 747.164 927.500 746.478 C 958.300 746.101, 1033 745.501, 1093.500 745.146 L 1203.500 744.500 1203.363 721 C 1203.217 696.019, 1201.474 677.995, 1196.400 649 C 1186.718 593.672, 1179.921 568.869, 1162.741 526.179 L 1156.575 510.857 1153.538 511.404 C 1142.148 513.454, 1088.238 518.232, 1056.500 520.005 C 1046.600 520.558, 1034.900 521.327, 1030.500 521.714 C 1026.100 522.101, 1004.275 522.416, 982 522.414 C 901.644 522.409, 823.968 514.936, 739 499.035 C 733.225 497.954, 722.200 495.907, 714.500 494.486 C 691.515 490.243, 664.773 485.054, 660.500 484.006 C 658.300 483.467, 646.375 480.782, 634 478.041 C 621.625 475.299, 608.243 472.144, 604.263 471.028 C 595.673 468.621, 596 468.648, 596 470.357 M 1371.738 472.595 C 1369.770 474.563, 1337.276 482.185, 1306 488.014 C 1262.402 496.141, 1257.444 497.010, 1254.750 497.005 C 1253.237 497.002, 1252 497.371, 1252 497.825 C 1252 498.279, 1253.138 501.991, 1254.528 506.075 C 1255.918 510.159, 1259.101 520.475, 1261.600 529 C 1264.100 537.525, 1268.100 550.800, 1270.490 558.500 C 1277.440 580.890, 1281.556 599.269, 1287.961 636.500 C 1291.714 658.317, 1295.828 694.396, 1297.950 724.110 C 1298.524 732.145, 1299.271 740.106, 1299.610 741.802 L 1300.227 744.884 1364.363 744.414 C 1399.639 744.156, 1434.509 743.683, 1441.852 743.364 L 1455.204 742.784 1454.556 731.642 C 1453.603 715.254, 1452.067 697.332, 1451.030 690.500 C 1450.529 687.200, 1449.597 680.900, 1448.959 676.500 C 1442.265 630.342, 1423.631 569.029, 1402.308 523 C 1399.334 516.580, 1384.625 487.325, 1379.813 478.258 C 1377.378 473.670, 1375.948 472.014, 1374.417 472.008 C 1373.271 472.004, 1372.066 472.268, 1371.738 472.595 M 198.352 834.628 C 197.721 834.887, 177.021 835.414, 152.352 835.799 L 107.500 836.500 107.199 842.302 C 106.562 854.557, 112.596 904.788, 117.553 928.500 C 122.052 950.017, 128.037 972.724, 138.112 1006.500 C 149.246 1043.823, 169.537 1087.066, 201.929 1142.500 C 216.754 1167.871, 244.582 1205.757, 265.705 1229.328 L 269.136 1233.156 273.818 1230.931 C 276.393 1229.708, 281.650 1227.253, 285.500 1225.477 C 289.350 1223.701, 301.050 1218.085, 311.500 1212.997 C 340.646 1198.805, 361.128 1189, 361.630 1189 C 361.879 1189, 364.877 1187.707, 368.292 1186.127 C 399.738 1171.575, 425.328 1161.719, 471.377 1146.426 C 486.160 1141.517, 498.474 1136.929, 498.742 1136.230 C 499.763 1133.568, 485.468 1107.629, 476.554 1095.970 C 470.138 1087.578, 415.712 1032.592, 397.036 1015.634 C 356.445 978.777, 311.804 934.756, 297.013 917 C 291.286 910.125, 277.353 895.047, 266.050 883.492 C 254.748 871.938, 242.827 859.113, 239.560 854.992 C 230.301 843.315, 226.957 840.134, 220.593 836.954 C 215.530 834.424, 213.590 834.011, 207.090 834.079 C 202.916 834.122, 198.983 834.370, 198.352 834.628 M 1300.510 837.250 C 1300.275 837.938, 1299.363 849.906, 1298.484 863.846 C 1295.967 903.727, 1291.453 937.921, 1283.876 974.500 C 1279.417 996.032, 1274.729 1015.927, 1271.977 1025 C 1270.392 1030.225, 1266.648 1042.600, 1263.657 1052.500 C 1260.666 1062.400, 1257.270 1073.387, 1256.109 1076.915 C 1254.949 1080.443, 1254 1083.899, 1254 1084.593 C 1254 1085.385, 1256.145 1086.111, 1259.750 1086.538 C 1262.912 1086.913, 1268.251 1087.841, 1271.613 1088.600 C 1278.894 1090.244, 1309.812 1095.324, 1322.500 1096.962 C 1334.788 1098.548, 1356.474 1102.635, 1368.181 1105.572 C 1373.506 1106.907, 1378.276 1108, 1378.781 1108 C 1379.601 1108, 1404 1062.245, 1404 1060.706 C 1404 1060.360, 1405.528 1056.797, 1407.395 1052.788 C 1420.396 1024.878, 1431.351 993.015, 1439.470 959.500 C 1445.087 936.310, 1450.582 905.525, 1452.500 886.500 C 1453.317 878.391, 1455.875 838.558, 1455.597 838.271 C 1453.253 835.849, 1301.331 834.849, 1300.510 837.250 M 892 838.969 L 871.500 839.500 854.500 857 C 845.150 866.625, 831.441 880.125, 824.035 887 C 816.630 893.875, 789.180 920.686, 763.035 946.579 C 736.891 972.473, 709.875 998.771, 703 1005.021 C 669.684 1035.304, 623.573 1081.506, 605.344 1102.870 C 598.389 1111.022, 598.126 1113.441, 604.444 1111.156 C 606.337 1110.472, 612.075 1109.064, 617.193 1108.027 C 622.312 1106.991, 633.925 1104.520, 643 1102.536 C 661.866 1098.412, 675.544 1095.731, 692 1092.932 C 698.325 1091.857, 708.225 1090.074, 714 1088.970 C 719.775 1087.866, 728.550 1086.337, 733.500 1085.571 C 738.450 1084.805, 751.500 1082.769, 762.500 1081.046 C 832.528 1070.077, 872.360 1065.126, 904 1063.460 C 910.325 1063.126, 916.850 1062.691, 918.500 1062.491 C 920.150 1062.292, 941.075 1061.567, 965 1060.879 C 1009.041 1059.614, 1069.280 1060.568, 1099.671 1063.012 C 1124.871 1065.038, 1136.850 1066.230, 1145.872 1067.610 C 1152.778 1068.666, 1155.596 1068.750, 1156.582 1067.932 C 1159.133 1065.815, 1167.860 1041.001, 1179.418 1003 C 1185.142 984.180, 1193.512 944.787, 1197.478 918 C 1202.453 884.394, 1206.783 842.484, 1205.599 839.397 C 1205.143 838.209, 1183.220 838.033, 1058.781 838.219 C 978.327 838.340, 903.275 838.677, 892 838.969 M 919.500 1156.029 C 915.100 1156.463, 904.075 1157.328, 895 1157.952 C 857.232 1160.547, 827.337 1163.593, 806.500 1166.966 C 799.900 1168.035, 792.475 1169.180, 790 1169.510 C 787.525 1169.841, 780.550 1170.983, 774.500 1172.048 C 768.450 1173.112, 755.175 1175.352, 745 1177.025 C 717.985 1181.466, 687.579 1187.725, 650.538 1196.468 C 642.309 1198.411, 635.446 1200, 635.288 1200 C 634.217 1200, 635.435 1203.701, 637.834 1207.735 C 639.392 1210.356, 643.468 1217.225, 646.892 1223 C 653.745 1234.560, 681.493 1274.848, 695.289 1293.271 C 722.226 1329.241, 774.498 1385.387, 821.500 1428.837 C 831.400 1437.989, 841.660 1447.491, 844.299 1449.951 C 852.206 1457.321, 853.720 1458.031, 860.500 1457.546 C 874.097 1456.573, 876.315 1455.667, 890.352 1445.346 C 920.072 1423.494, 949.399 1398.375, 964.212 1382.086 C 968.221 1377.679, 976.936 1368.094, 983.580 1360.786 C 997.918 1345.017, 1018.283 1320.569, 1029.718 1305.401 C 1062.401 1262.047, 1076.457 1241.120, 1101.385 1198.707 C 1106.392 1190.187, 1119 1165.782, 1119 1164.610 C 1119 1163.311, 1114.213 1162.530, 1090.500 1159.958 C 1056.334 1156.254, 1043.409 1155.699, 986 1155.472 C 953.825 1155.345, 923.900 1155.595, 919.500 1156.029 M 1217.086 1185.296 C 1211.738 1196.446, 1198.033 1222.422, 1193.500 1230 C 1191.690 1233.025, 1187.443 1240.225, 1184.061 1246 C 1173.680 1263.727, 1153.755 1293.425, 1135.311 1318.661 C 1114.534 1347.091, 1104.310 1360.122, 1078.250 1391.384 C 1073.713 1396.827, 1070 1401.668, 1070 1402.140 C 1070 1404.060, 1073.351 1402.730, 1081.215 1397.690 C 1085.772 1394.770, 1094.900 1389.289, 1101.500 1385.510 C 1148.970 1358.331, 1181.822 1336.631, 1207.500 1315.492 C 1214.650 1309.606, 1223.539 1302.342, 1227.253 1299.350 C 1230.967 1296.358, 1234.792 1293.114, 1235.753 1292.141 C 1236.714 1291.168, 1240.911 1287.622, 1245.080 1284.261 C 1261.656 1270.897, 1291.482 1239.333, 1309.650 1215.931 C 1315.761 1208.058, 1326 1192.657, 1326 1191.337 C 1326 1190.819, 1323.638 1189.862, 1320.750 1189.210 C 1308.852 1186.525, 1277.523 1181.064, 1268.344 1180.076 C 1255.058 1178.646, 1225.297 1175.989, 1223.194 1176.046 C 1222.062 1176.076, 1220.035 1179.145, 1217.086 1185.296 M 532 1228.597 C 528.425 1229.918, 515.375 1234.439, 503 1238.643 C 471.633 1249.298, 457.555 1254.159, 442.500 1259.530 C 435.350 1262.081, 428.375 1264.526, 427 1264.963 C 423.032 1266.225, 408.097 1272.592, 401.124 1275.995 C 397.617 1277.706, 389.742 1281.359, 383.624 1284.112 C 370.764 1289.899, 356.827 1297.268, 352.496 1300.571 C 350.843 1301.832, 348.256 1303.333, 346.746 1303.907 C 341.830 1305.776, 341.590 1305.494, 362.898 1322.894 C 380.944 1337.630, 412.937 1359.928, 433 1371.752 C 459.401 1387.312, 508.507 1409.854, 542.500 1422.018 C 596.331 1441.282, 621.854 1448.395, 662.500 1455.462 C 682.914 1459.011, 714.222 1461.721, 716.741 1460.157 C 717.343 1459.783, 711.141 1452.607, 702.345 1443.500 C 685.798 1426.370, 660.231 1397.197, 648.885 1382.500 C 645.063 1377.550, 635.855 1365.850, 628.422 1356.500 C 614.381 1338.839, 604.040 1324.350, 586.668 1298 C 581.048 1289.475, 573.966 1278.900, 570.932 1274.500 C 564.124 1264.631, 554.097 1248.663, 546.597 1235.750 C 543.483 1230.388, 540.387 1226.044, 539.717 1226.097 C 539.048 1226.150, 535.575 1227.275, 532 1228.597" stroke="none" fill="#8b94b3" fill-rule="evenodd" />

  </g>
  <!-- Position wordmark to the right of the mark + gap -->
  <g transform="translate(605.8950,-0.0000)">
    <ns0:path xmlns:ns0="http://www.w3.org/2000/svg" fill="#FFFFFF" opacity="1.000000" stroke="none" d=" M1317.000000,539.000000   C878.333313,539.000000 439.666656,539.000000 1.000000,538.997742   C1.000000,537.662720 1.000000,536.329956 1.468657,534.498596   C28.867203,534.000000 55.797089,534.000000 83.137421,534.000000   C83.137421,458.391663 83.137421,383.332489 83.137421,307.860901   C157.276596,307.860901 231.002640,307.860901 304.712311,307.860901   C304.712311,283.379913 304.712311,259.314545 304.712311,234.837112   C230.699524,234.837112 156.973480,234.837112 83.294044,234.837112   C83.294044,182.693939 83.294044,130.965759 83.294044,78.827011   C170.311478,78.827011 257.035614,78.827011 344.000000,78.827011   C344.000000,52.610600 344.000000,26.805300 344.000000,1.000000   C419.693512,1.000000 495.387054,1.000000 571.540283,1.468657   C572.000000,179.527832 572.000000,357.118347 572.000000,534.724915   C686.598206,534.724915 800.660889,534.724915 914.711060,534.724915   C914.711060,509.048065 914.711060,483.647400 914.711060,457.826111   C827.691345,457.826111 740.959778,457.826111 654.000000,457.826111   C654.000000,305.268890 654.000000,153.134445 654.000000,1.000000   C818.693542,1.000000 983.387024,1.000000 1148.540283,1.468657   C1149.000000,123.346268 1148.885986,244.755508 1149.185547,366.163727   C1149.213867,377.646576 1151.061768,389.285858 1153.423706,400.568024   C1158.191406,423.341187 1167.295288,444.412506 1181.037476,463.340332   C1192.287476,478.835541 1205.606934,492.364044 1221.528564,502.924896   C1233.046509,510.564758 1245.051514,517.704468 1257.533081,523.597717   C1272.724609,530.770447 1289.015137,535.018311 1305.799194,537.033630   C1309.557251,537.484863 1313.267700,538.334045 1317.000000,539.000000  z" />
<ns0:path xmlns:ns0="http://www.w3.org/2000/svg" fill="#FFFFFF" opacity="1.000000" stroke="none" d=" M1529.000000,1.000000   C1601.021973,1.000000 1673.044067,1.000000 1745.620117,1.345689   C1751.189819,10.329365 1756.149170,19.000525 1761.232056,27.598722   C1774.124390,49.407478 1787.067749,71.186089 1799.998779,92.971962   C1809.552856,109.068535 1819.155640,125.136375 1828.670532,141.256058   C1838.591431,158.063477 1848.402222,174.935760 1858.317505,191.746506   C1868.974365,209.814789 1879.814819,227.776047 1890.335449,245.922928   C1894.902100,253.799728 1902.382446,261.660797 1892.990845,271.138367   C1892.652344,271.479797 1892.410522,271.925293 1892.159058,272.343536   C1879.604980,293.225433 1867.016235,314.086700 1854.516235,335.000824   C1843.755005,353.005249 1833.132080,371.092163 1822.381592,389.102966   C1808.489258,412.378021 1794.553101,435.627045 1780.593872,458.862152   C1769.956665,476.567963 1759.213501,494.210297 1748.599976,511.930237   C1744.163940,519.336487 1739.941040,526.870422 1735.341553,534.830200   C1766.681885,534.830200 1797.053711,534.830200 1827.425537,534.830200   C1827.454468,534.681824 1827.483521,534.533447 1827.512451,534.385071   C1826.661865,534.133728 1825.811279,533.882385 1824.697998,533.553467   C1825.602173,531.922852 1826.433105,530.319092 1827.357910,528.771301   C1879.926270,440.803131 1932.482056,352.827362 1985.159302,264.924438   C1987.061768,261.750031 1986.997192,259.583160 1985.153320,256.461578   C1936.250732,173.676636 1887.452759,90.829803 1838.657104,7.981735   C1837.325439,5.720819 1836.214233,3.330087 1835.000000,0.999978   C1906.355347,1.000000 1977.710571,1.000000 2049.443359,1.347300   C2046.872192,6.868818 2043.930786,12.047397 2040.972656,17.216368   C2032.799072,31.499016 2024.627686,45.782967 2016.438110,60.056484   C2007.932617,74.880493 1999.512573,89.755447 1990.805786,104.460480   C1988.935791,107.618805 1989.093262,109.893394 1990.880737,112.950302   C2002.967651,133.620956 2014.871216,154.398743 2026.836914,175.140289   C2028.701172,178.371735 2030.580078,181.594696 2032.651978,185.165970   C2033.495483,183.929489 2034.100708,183.158051 2034.584595,182.316757   C2068.659180,123.073051 2102.727051,63.825603 2136.762695,4.559658   C2137.377197,3.489287 2137.596436,2.191622 2138.000000,1.000005   C2143.329102,1.000000 2148.658203,1.000000 2153.993652,1.000000   C2154.000000,178.355347 2154.000000,355.710693 2153.595703,533.532654   C2149.543457,534.887390 2148.394043,532.253357 2146.929932,529.765991   C2109.995117,467.006195 2073.023682,404.268005 2036.052979,341.529510   C2035.062500,339.848816 2034.006714,338.206665 2032.710083,336.107239   C2018.189209,360.679047 2003.962769,384.675476 1989.902588,408.768829   C1989.189697,409.990479 1989.385254,412.304321 1990.055786,413.668091   C1992.257080,418.144409 1994.796021,422.462402 1997.342041,426.760132   C2009.097656,446.603424 2020.939453,466.395721 2032.671875,486.252625   C2041.609009,501.378326 2050.416260,516.580811 2059.313232,531.730286   C2060.684326,534.064514 2062.465088,535.129700 2065.557861,535.110413   C2095.037598,534.926575 2124.519043,535.000305 2154.000000,535.000000   C2154.000000,536.332581 2154.000000,537.665222 2154.000000,538.998901   C1889.978027,539.000000 1625.955933,539.000000 1361.632202,538.603882   C1368.568604,537.149841 1375.846436,536.308533 1383.038330,534.996948   C1416.493774,528.895630 1445.580200,513.694092 1470.945312,491.434753   C1494.829956,470.474609 1511.782349,444.719330 1520.889648,414.156342   C1525.922485,397.266876 1528.943604,379.922028 1528.955933,362.248077   C1529.040039,241.832108 1529.000000,121.416039 1529.000000,1.000000  z" />
<ns0:path xmlns:ns0="http://www.w3.org/2000/svg" fill="#0A194D" opacity="1.000000" stroke="none" d=" M1528.531372,1.000000   C1529.000000,121.416039 1529.040039,241.832108 1528.955933,362.248077   C1528.943604,379.922028 1525.922485,397.266876 1520.889648,414.156342   C1511.782349,444.719330 1494.829956,470.474609 1470.945312,491.434753   C1445.580200,513.694092 1416.493774,528.895630 1383.038330,534.996948   C1375.846436,536.308533 1368.568604,537.149841 1361.165283,538.603882   C1346.645752,539.000000 1332.291504,539.000000 1317.468628,539.000000   C1313.267700,538.334045 1309.557251,537.484863 1305.799194,537.033630   C1289.015137,535.018311 1272.724609,530.770447 1257.533081,523.597717   C1245.051514,517.704468 1233.046509,510.564758 1221.528564,502.924896   C1205.606934,492.364044 1192.287476,478.835541 1181.037476,463.340332   C1167.295288,444.412506 1158.191406,423.341187 1153.423706,400.568024   C1151.061768,389.285858 1149.213867,377.646576 1149.185547,366.163727   C1148.885986,244.755508 1149.000000,123.346268 1149.000000,1.468657   C1176.020874,1.000000 1203.041870,1.000000 1230.531372,1.468657   C1231.000000,117.764412 1230.931641,233.591629 1231.129639,349.418396   C1231.145508,358.669983 1232.301392,368.059143 1234.128174,377.142883   C1240.499390,408.824585 1258.698120,431.702789 1287.515503,446.055450   C1311.701172,458.101318 1337.324585,459.691376 1363.437866,454.923340   C1387.890503,450.458527 1408.269531,438.600342 1424.202148,419.321991   C1439.765991,400.489685 1446.632080,378.111542 1446.744385,354.479706   C1447.303711,236.655380 1447.000000,118.826973 1447.000000,1.000000   C1474.020874,1.000000 1501.041870,1.000000 1528.531372,1.000000  z" />
<ns0:path xmlns:ns0="http://www.w3.org/2000/svg" fill="#FFFFFF" opacity="1.000000" stroke="none" d=" M1446.531372,1.000000   C1447.000000,118.826973 1447.303711,236.655380 1446.744385,354.479706   C1446.632080,378.111542 1439.765991,400.489685 1424.202148,419.321991   C1408.269531,438.600342 1387.890503,450.458527 1363.437866,454.923340   C1337.324585,459.691376 1311.701172,458.101318 1287.515503,446.055450   C1258.698120,431.702789 1240.499390,408.824585 1234.128174,377.142883   C1232.301392,368.059143 1231.145508,358.669983 1231.129639,349.418396   C1230.931641,233.591629 1231.000000,117.764412 1231.000000,1.468657   C1302.687622,1.000000 1374.375122,1.000000 1446.531372,1.000000  z" />
<ns0:path xmlns:ns0="http://www.w3.org/2000/svg" fill="#0A194D" opacity="1.000000" stroke="none" d=" M343.531342,1.000000   C344.000000,26.805300 344.000000,52.610600 344.000000,78.827011   C257.035614,78.827011 170.311478,78.827011 83.294044,78.827011   C83.294044,130.965759 83.294044,182.693939 83.294044,234.837112   C156.973480,234.837112 230.699524,234.837112 304.712311,234.837112   C304.712311,259.314545 304.712311,283.379913 304.712311,307.860901   C231.002640,307.860901 157.276596,307.860901 83.137421,307.860901   C83.137421,383.332489 83.137421,458.391663 83.137421,534.000000   C55.797089,534.000000 28.867203,534.000000 1.468657,534.000000   C1.000000,356.422058 1.000000,178.844131 1.000000,1.000000   C115.020760,1.000000 229.041718,1.000000 343.531342,1.000000  z" />
<ns0:path xmlns:ns0="http://www.w3.org/2000/svg" fill="#0A194D" opacity="1.000000" stroke="none" d=" M653.531372,1.000000   C654.000000,153.134445 654.000000,305.268890 654.000000,457.826111   C740.959778,457.826111 827.691345,457.826111 914.711060,457.826111   C914.711060,483.647400 914.711060,509.048065 914.711060,534.724915   C800.660889,534.724915 686.598206,534.724915 572.000000,534.724915   C572.000000,357.118347 572.000000,179.527832 572.000000,1.468657   C599.020874,1.000000 626.041809,1.000000 653.531372,1.000000  z" />
<ns0:path xmlns:ns0="http://www.w3.org/2000/svg" fill="#0A194D" opacity="1.000000" stroke="none" d=" M1834.531494,0.999978   C1836.214233,3.330087 1837.325439,5.720819 1838.657104,7.981735   C1887.452759,90.829803 1936.250732,173.676636 1985.153320,256.461578   C1986.997192,259.583160 1987.061768,261.750031 1985.159302,264.924438   C1932.482056,352.827362 1879.926270,440.803131 1827.357910,528.771301   C1826.433105,530.319092 1825.602173,531.922852 1824.697998,533.553467   C1825.811279,533.882385 1826.661865,534.133728 1827.512451,534.385071   C1827.483521,534.533447 1827.454468,534.681824 1827.425537,534.830200   C1797.053711,534.830200 1766.681885,534.830200 1735.341553,534.830200   C1739.941040,526.870422 1744.163940,519.336487 1748.599976,511.930237   C1759.213501,494.210297 1769.956665,476.567963 1780.593872,458.862152   C1794.553101,435.627045 1808.489258,412.378021 1822.381592,389.102966   C1833.132080,371.092163 1843.755005,353.005249 1854.516235,335.000824   C1867.016235,314.086700 1879.604980,293.225433 1892.159058,272.343536   C1892.410522,271.925293 1892.652344,271.479797 1892.990845,271.138367   C1902.382446,261.660797 1894.902100,253.799728 1890.335449,245.922928   C1879.814819,227.776047 1868.974365,209.814789 1858.317505,191.746506   C1848.402222,174.935760 1838.591431,158.063477 1828.670532,141.256058   C1819.155640,125.136375 1809.552856,109.068535 1799.998779,92.971962   C1787.067749,71.186089 1774.124390,49.407478 1761.232056,27.598722   C1756.149170,19.000525 1751.189819,10.329365 1746.087158,1.345689   C1775.354248,1.000000 1804.708496,1.000000 1834.531494,0.999978  z" />
<ns0:path xmlns:ns0="http://www.w3.org/2000/svg" fill="#0B1A4D" opacity="1.000000" stroke="none" d=" M2154.000000,534.750000   C2124.519043,535.000305 2095.037598,534.926575 2065.557861,535.110413   C2062.465088,535.129700 2060.684326,534.064514 2059.313232,531.730286   C2050.416260,516.580811 2041.609009,501.378326 2032.671875,486.252625   C2020.939453,466.395721 2009.097656,446.603424 1997.342041,426.760132   C1994.796021,422.462402 1992.257080,418.144409 1990.055786,413.668091   C1989.385254,412.304321 1989.189697,409.990479 1989.902588,408.768829   C2003.962769,384.675476 2018.189209,360.679047 2032.710083,336.107239   C2034.006714,338.206665 2035.062500,339.848816 2036.052979,341.529510   C2073.023682,404.268005 2109.995117,467.006195 2146.929932,529.765991   C2148.394043,532.253357 2149.543457,534.887390 2153.595703,533.999634   C2154.000000,534.000000 2154.000000,534.500000 2154.000000,534.750000  z" />
<ns0:path xmlns:ns0="http://www.w3.org/2000/svg" fill="#0B1A4D" opacity="1.000000" stroke="none" d=" M2137.531250,1.000005   C2137.596436,2.191622 2137.377197,3.489287 2136.762695,4.559658   C2102.727051,63.825603 2068.659180,123.073051 2034.584595,182.316757   C2034.100708,183.158051 2033.495483,183.929489 2032.651978,185.165970   C2030.580078,181.594696 2028.701172,178.371735 2026.836914,175.140289   C2014.871216,154.398743 2002.967651,133.620956 1990.880737,112.950302   C1989.093262,109.893394 1988.935791,107.618805 1990.805786,104.460480   C1999.512573,89.755447 2007.932617,74.880493 2016.438110,60.056484   C2024.627686,45.782967 2032.799072,31.499016 2040.972656,17.216368   C2043.930786,12.047397 2046.872192,6.868818 2049.910645,1.347300   C2079.020752,1.000000 2108.041748,1.000000 2137.531250,1.000005  z" />

  </g>
</svg>
