<svg width="3672" height="1112" viewBox="0 0 3672 1112" fill="none" xmlns="http://www.w3.org/2000/svg">
<path d="M3022.62 277.039C3023.1 402.155 3023.15 527.272 3023.06 652.388C3023.05 670.752 3019.91 688.774 3014.7 706.322C3005.25 738.078 2987.68 764.839 2962.92 786.617C2936.62 809.745 2906.47 825.54 2871.79 831.88C2864.33 833.243 2856.79 834.117 2849.11 835.627C2834.06 836.039 2819.18 836.039 2803.81 836.039C2799.46 835.347 2795.61 834.465 2791.71 833.996C2774.31 831.902 2757.42 827.488 2741.68 820.036C2728.74 813.912 2716.29 806.494 2704.35 798.556C2687.84 787.583 2674.04 773.526 2662.37 757.426C2648.13 737.759 2638.69 715.866 2633.75 692.204C2631.3 680.481 2629.38 668.387 2629.35 656.456C2629.04 530.309 2629.16 404.161 2629.16 277.526C2657.17 277.039 2685.19 277.039 2713.68 277.526C2714.17 398.361 2714.1 518.71 2714.3 639.057C2714.32 648.67 2715.52 658.426 2717.41 667.864C2724.02 700.782 2742.88 724.554 2772.76 739.467C2797.83 751.983 2824.4 753.635 2851.47 748.681C2876.82 744.041 2897.94 731.72 2914.46 711.69C2930.6 692.122 2937.71 668.871 2937.83 644.316C2938.41 521.893 2938.09 399.465 2938.09 277.039C2966.11 277.039 2994.12 277.039 3022.62 277.039Z" fill="#0A194D"/>
<path d="M1794.14 277.039C1794.62 303.852 1794.62 330.664 1794.62 357.904C1704.47 357.904 1614.56 357.904 1524.35 357.904C1524.35 412.078 1524.35 465.825 1524.35 520.004C1600.73 520.004 1677.16 520.004 1753.89 520.004C1753.89 545.437 1753.89 570.441 1753.89 595.878C1677.48 595.878 1601.05 595.878 1524.19 595.878C1524.19 674.295 1524.19 752.284 1524.19 830.844C1495.84 830.844 1467.93 830.844 1439.52 830.844C1439.04 646.334 1439.04 461.825 1439.04 277.039C1557.24 277.039 1675.45 277.039 1794.14 277.039Z" fill="#0A194D"/>
<path d="M2115.51 277.039C2116 435.112 2116 593.185 2116 751.697C2206.15 751.697 2296.06 751.697 2386.27 751.697C2386.27 778.526 2386.27 804.918 2386.27 831.597C2268.04 831.597 2149.79 831.597 2030.99 831.597C2030.99 647.058 2030.99 462.535 2030.99 277.526C2059 277.039 2087.01 277.039 2115.51 277.039Z" fill="#0A194D"/>
<path d="M3339.85 277.039C3341.59 279.46 3342.74 281.944 3344.12 284.293C3394.71 370.375 3445.3 456.456 3495.99 542.472C3497.91 545.716 3497.97 547.967 3496 551.265C3441.39 642.599 3386.91 734.009 3332.41 825.411C3331.45 827.019 3330.59 828.686 3329.65 830.38C3330.81 830.722 3331.69 830.983 3332.57 831.244C3332.54 831.398 3332.51 831.552 3332.48 831.706C3300.99 831.706 3269.51 831.706 3237.02 831.706C3241.78 823.436 3246.16 815.608 3250.76 807.913C3261.76 789.501 3272.9 771.17 3283.93 752.773C3298.4 728.631 3312.85 704.475 3327.25 680.291C3338.4 661.577 3349.41 642.784 3360.56 624.077C3373.52 602.347 3386.57 580.671 3399.59 558.974C3399.85 558.54 3400.1 558.077 3400.45 557.722C3410.19 547.874 3402.43 539.706 3397.7 531.522C3386.79 512.667 3375.55 494.005 3364.5 475.231C3354.23 457.764 3344.06 440.233 3333.77 422.77C3323.91 406.021 3313.95 389.326 3304.05 372.601C3290.64 349.965 3277.22 327.336 3263.86 304.676C3258.59 295.742 3253.45 286.733 3248.16 277.398C3278.5 277.039 3308.93 277.039 3339.85 277.039Z" fill="#0A194D"/>
<path d="M3671.04 831.623C3640.47 831.883 3609.91 831.806 3579.35 831.998C3576.14 832.018 3574.3 830.911 3572.88 828.485C3563.65 812.745 3554.52 796.949 3545.26 781.233C3533.09 760.601 3520.82 740.036 3508.63 719.418C3505.99 714.952 3503.36 710.466 3501.08 705.815C3500.38 704.398 3500.18 701.994 3500.92 700.724C3515.49 675.691 3530.24 650.757 3545.3 625.227C3546.64 627.408 3547.73 629.114 3548.76 630.86C3587.09 696.048 3625.42 761.235 3663.71 826.444C3665.22 829.029 3666.42 831.766 3670.62 830.843C3671.04 830.844 3671.04 831.363 3671.04 831.623Z" fill="#0B1A4D"/>
<path d="M3653.96 277.039C3654.03 278.277 3653.8 279.626 3653.17 280.738C3617.88 342.317 3582.56 403.877 3547.24 465.433C3546.74 466.307 3546.11 467.109 3545.24 468.394C3543.09 464.683 3541.14 461.334 3539.21 457.977C3526.8 436.425 3514.46 414.837 3501.93 393.359C3500.08 390.183 3499.92 387.82 3501.85 384.538C3510.88 369.259 3519.61 353.803 3528.43 338.401C3536.92 323.57 3545.39 308.729 3553.86 293.888C3556.93 288.518 3559.98 283.137 3563.13 277.4C3593.31 277.039 3623.39 277.039 3653.96 277.039Z" fill="#0B1A4D"/>
<path fill-rule="evenodd" clip-rule="evenodd" d="M543.003 0.886387C531.582 1.29053 507.686 3.33199 494.356 5.04155C475.282 7.48858 463.455 9.35908 446.782 12.5643C415.822 18.5177 376.375 29.8287 354.72 38.9617C353.81 39.3458 350.007 40.8279 346.269 42.2556C342.531 43.6833 338.185 45.4222 336.611 46.1204C335.038 46.8178 331.013 48.5953 327.669 50.0695C319.365 53.7311 284.426 71.2223 277.299 75.2866C262.005 84.0082 245.145 94.5882 235.402 101.578C234.305 102.365 231.84 104.115 229.924 105.468C205.974 122.372 188.012 137.798 162.588 163.3C127.513 198.482 105.33 226.265 83.3662 262.52C78.2769 270.921 70.8417 283.756 70.8417 284.14C70.8417 284.324 70.2065 285.366 69.4295 286.457C67.7197 288.856 53.1836 317.443 50.8657 322.963C49.9572 325.126 47.4554 331.081 45.3071 336.196C38.2054 353.101 29.5333 377.571 23.3187 398.236C19.5056 410.918 11.4238 444.891 8.98 458.511C8.34473 462.052 7.507 466.719 7.11854 468.883C6.73008 471.047 6.10911 475.231 5.73925 478.182C5.36868 481.133 4.57173 487.194 3.96865 491.652C-0.600588 525.419 -0.273651 581.461 4.73841 623.387C9.17172 660.478 17.2278 695.798 29.8631 733.543C38.7147 759.984 44.4694 775.547 49.5687 786.833C52.627 793.603 63.4267 814.979 66.9142 821.167C67.8013 822.741 70.6937 827.891 73.3413 832.612C90.1546 862.589 107.933 887.95 131.861 916.094C144.176 930.579 174.539 960.95 189.24 973.488C213.425 994.117 235.998 1011.03 256.491 1023.87C263.189 1028.07 265.955 1029.8 269.364 1031.95C273.77 1034.72 300.099 1049.03 306.922 1052.35C350.41 1073.56 381.699 1084.87 429.255 1096.57C454.35 1102.75 486.311 1107.19 529.375 1110.48C550.814 1112.12 584.835 1111.12 613.827 1108.01C623.786 1106.93 649.654 1103.27 657.109 1101.87C659.076 1101.51 663.422 1100.7 666.767 1100.09C685.467 1096.67 715.488 1088.52 742.956 1079.41C760.054 1073.73 766.454 1071.21 785.165 1062.77C821.105 1046.55 847.79 1031.59 879.669 1009.79C900.158 995.775 904.982 992.071 928.182 972.545C935.402 966.469 950.519 952.566 958.098 945.033C969.905 933.298 992.695 907.644 1000.53 897.276C1001.3 896.253 1004.83 891.594 1008.37 886.921C1011.91 882.248 1015.35 877.613 1016.02 876.62C1016.69 875.627 1018.73 872.722 1020.55 870.165C1030.49 856.206 1034.64 849.378 1047.32 826.174C1064.56 794.609 1071.98 778.186 1082.4 748.564C1090.97 724.176 1097.07 704.049 1101.36 685.976C1102.76 680.075 1104.2 674.12 1104.56 672.743C1105.46 669.332 1109.97 642.813 1111.38 632.686C1113.48 617.549 1113.91 613.801 1114.99 600.856C1115.59 593.774 1116.28 586.532 1116.53 584.761C1117.15 580.444 1117.16 535.899 1116.55 531.829C1116.28 530.059 1115.74 523.46 1115.34 517.166C1114.4 502.332 1114.03 498.147 1112.77 488.196C1108.96 458.255 1105.15 440.459 1094.79 404.149C1083.18 363.446 1074.05 339.528 1058.77 309.694C1044.35 281.557 1022.73 245.703 1009.84 228.543C999.948 215.366 992.006 205.241 987.692 200.3C985.293 197.552 982.49 194.334 981.464 193.147C974.132 184.671 970.174 180.485 955.169 165.33C935.042 145.004 918.384 130.407 897.84 115.096C888.489 108.127 874.232 97.6876 869.939 94.6676C861.637 88.8265 831.175 70.4026 823.796 66.7595C822.616 66.1766 818.753 64.2224 815.211 62.417C758.01 33.2471 699.939 15.6136 630.997 6.47786C602.765 2.73686 562.685 0.189687 543.003 0.886387ZM498.715 79.8302C484.517 81.4475 467.452 84.2164 456.798 86.6312C438.359 90.8114 422.179 95.0639 410.655 98.7591C376.328 109.767 354.746 118.389 333.392 129.626C309.872 142.003 293.174 151.974 281.526 160.597C275.237 165.253 250.406 186.349 250.406 187.036C250.406 187.666 310.042 217.018 316.938 219.783C328.247 224.317 344.424 229.862 380.18 241.459C384.891 242.987 384.951 242.961 387.517 238.2C388.814 235.791 400.257 218.515 406.704 209.23C427.071 179.897 449.154 150.615 464.153 133.051C467.848 128.724 473.178 122.469 475.996 119.151C478.815 115.834 488.127 105.705 496.689 96.6432C505.252 87.5811 512.152 79.8538 512.026 79.4725C511.667 78.3953 511.202 78.4082 498.715 79.8302ZM610.014 82.4811L605.842 82.6978L593.56 93.2949C579.809 105.16 546.686 137.72 536.885 149.007C522.395 165.696 511.506 178.741 505.426 186.698C502.721 190.239 496.629 198.127 491.887 204.226C483.371 215.183 481.214 218.042 473.54 228.543C465.641 239.354 454.294 258.041 454.294 260.24C454.294 260.981 454.862 261.447 455.764 261.447C456.572 261.447 460.032 262.212 463.454 263.147C466.876 264.082 473.377 265.711 477.902 266.767C482.427 267.824 489.831 269.606 494.356 270.727C498.881 271.847 507.734 273.776 514.03 275.012C520.325 276.248 528.534 277.87 532.272 278.617C554.365 283.03 570.087 285.319 600.95 288.618C644.026 293.221 660.286 294.13 701.823 294.262C738.047 294.377 757.089 293.572 777.653 291.054C782.571 290.452 789.097 289.779 792.155 289.559C797.774 289.154 799.088 288.559 797.835 286.987C797.457 286.513 794.961 281.779 792.289 276.468C779.094 250.245 766.608 229.475 753.82 212.474C734.026 186.159 722.664 172.331 704.96 153.009C684.036 130.171 664.12 113.073 633.501 91.6612C621.6 83.3394 618.305 82.0512 610.014 82.4811ZM763.345 117.682C763.345 118.08 766.666 122.345 770.724 127.159C778.245 136.08 792.925 155.2 798.4 163.203C798.99 164.066 805.31 172.924 812.444 182.888C837.117 217.348 846.26 232.445 863.167 266.644C867.394 275.194 871.175 282.191 871.568 282.191C872.938 282.191 888.952 279.317 897.124 277.603C922.927 272.196 927.24 271.241 931.574 269.973C937.111 268.353 942.666 265.997 943.276 265.009C943.763 264.221 941.355 260.54 933.694 250.36C919.335 231.281 900.631 212.107 875.662 190.868C851.782 170.554 800.843 135.754 778.814 124.702C776.405 123.494 772.285 121.257 769.659 119.731C764.748 116.878 763.345 116.423 763.345 117.682ZM191.279 242.67C180.012 255.397 167.243 271.407 161.186 280.402C142.137 308.69 127.177 334.029 121.49 347.64C119.679 351.975 115.36 362.091 113.092 367.311C91.1554 417.802 82.1042 453.684 77.276 509.298C76.8661 514.018 76.4583 518.525 76.3689 519.312C76.2094 520.722 76.6865 520.745 110.189 520.935C129.967 521.046 145.037 521.42 146.244 521.829C147.385 522.214 149.887 522.531 151.805 522.531C156.09 522.531 154.794 523.644 183.517 495.289C195.321 483.636 208.418 470.989 212.622 467.185C216.825 463.38 225.226 454.883 231.29 448.303C237.354 441.722 249.983 428.934 259.354 419.885C268.725 410.837 289.146 390.719 304.734 375.179C332.394 347.605 333.155 346.771 336.4 340.487C338.227 336.947 340.523 331.957 341.501 329.4C342.479 326.843 345.079 320.407 347.278 315.098C349.478 309.788 351.277 304.941 351.277 304.326C351.277 303.632 349.988 302.765 347.879 302.044C324.685 294.1 300.05 284.61 287.843 278.917C283.975 277.114 274.211 272.92 266.145 269.599C258.079 266.277 250.192 262.967 248.618 262.242C247.044 261.518 243.02 259.678 239.675 258.154C236.331 256.629 225.454 251.275 215.504 246.254C205.554 241.234 197.138 237.127 196.801 237.127C196.464 237.127 193.979 239.622 191.279 242.67ZM425.678 324.649C425.678 325.578 429.025 329.318 448.066 349.662C456.033 358.174 465.68 367.241 490.156 389.223C504.775 402.351 522.901 420.217 539.924 438.278C548.347 447.214 564.959 463.82 576.842 475.182C588.724 486.543 603.919 501.871 610.608 509.244L622.77 522.648L662.832 522.157C684.866 521.887 738.306 521.458 781.588 521.204L860.281 520.742L860.183 503.933C860.079 486.064 858.832 473.171 855.202 452.431C848.276 412.855 843.413 395.114 831.123 364.578L826.711 353.618L824.539 354.009C816.39 355.476 777.823 358.893 755.118 360.162C748.036 360.557 739.666 361.107 736.518 361.384C733.37 361.661 717.757 361.886 701.821 361.885C644.335 361.881 588.766 356.536 527.98 345.162C523.848 344.389 515.961 342.924 510.453 341.908C494.009 338.873 474.878 335.161 471.821 334.412C470.247 334.026 461.716 332.105 452.863 330.145C444.01 328.184 434.437 325.927 431.59 325.129C425.444 323.407 425.678 323.426 425.678 324.649ZM980.638 326.249C979.23 327.657 955.984 333.109 933.609 337.279C902.42 343.092 898.873 343.713 896.945 343.71C895.863 343.708 894.978 343.972 894.978 344.296C894.978 344.621 895.792 347.276 896.787 350.198C897.781 353.119 900.058 360.498 901.846 366.596C903.634 372.694 906.496 382.189 908.206 387.697C913.178 403.712 916.122 416.859 920.704 443.49C923.389 459.096 926.332 484.903 927.851 506.157C928.261 511.905 928.796 517.599 929.038 518.812L929.48 521.017L975.362 520.681C1000.6 520.496 1025.54 520.158 1030.8 519.93L1040.35 519.515L1039.89 511.545C1039.2 499.823 1038.11 487.003 1037.36 482.116C1037 479.756 1036.34 475.249 1035.88 472.102C1031.09 439.085 1017.76 395.228 1002.51 362.304C1000.38 357.712 989.858 336.786 986.415 330.3C984.673 327.018 983.65 325.834 982.555 325.829C981.735 325.827 980.873 326.015 980.638 326.249ZM141.202 585.211C140.751 585.396 125.942 585.773 108.294 586.048L76.2072 586.55L75.9919 590.7C75.5362 599.466 79.8529 635.396 83.3991 652.357C86.6177 667.748 90.8993 683.99 98.1069 708.15C106.072 734.847 120.588 765.779 143.761 805.431C154.367 823.578 174.275 850.678 189.386 867.538L191.841 870.277L195.19 868.685C197.033 867.81 200.793 866.054 203.548 864.784C206.302 863.514 214.672 859.496 222.148 855.857C242.999 845.705 257.652 838.692 258.011 838.692C258.189 838.692 260.334 837.767 262.777 836.637C285.273 826.228 303.58 819.178 336.523 808.239C347.099 804.728 355.909 801.446 356.1 800.946C356.831 799.042 346.604 780.487 340.227 772.148C335.637 766.145 296.701 726.814 283.34 714.684C254.302 688.32 222.366 656.832 211.784 644.131C207.687 639.213 197.719 628.428 189.633 620.163C181.548 611.898 173.02 602.725 170.682 599.777C164.059 591.424 161.666 589.149 157.114 586.874C153.491 585.065 152.104 584.769 147.454 584.818C144.467 584.849 141.654 585.026 141.202 585.211ZM929.682 587.086C929.514 587.578 928.861 596.139 928.233 606.11C926.432 634.637 923.203 659.096 917.782 685.261C914.592 700.662 911.238 714.893 909.27 721.383C908.136 725.121 905.457 733.972 903.317 741.054C901.178 748.135 898.748 755.994 897.918 758.518C897.088 761.041 896.409 763.514 896.409 764.01C896.409 764.576 897.943 765.096 900.522 765.401C902.784 765.669 906.604 766.333 909.009 766.876C914.218 768.052 936.337 771.686 945.414 772.857C954.204 773.992 969.718 776.915 978.094 779.016C981.903 779.971 985.315 780.753 985.677 780.753C986.263 780.753 1003.72 748.024 1003.72 746.924C1003.72 746.676 1004.81 744.127 1006.15 741.26C1015.45 721.296 1023.29 698.504 1029.09 674.531C1033.11 657.943 1037.04 635.923 1038.42 622.314C1039 616.514 1040.83 588.022 1040.63 587.816C1038.95 586.084 930.269 585.369 929.682 587.086ZM637.436 588.316L622.77 588.696L610.608 601.213C603.919 608.098 594.112 617.754 588.814 622.672C583.516 627.59 563.878 646.768 545.174 665.289C526.471 683.811 507.144 702.622 502.226 707.092C478.392 728.754 445.404 761.802 432.363 777.083C427.387 782.915 427.199 784.645 431.719 783.01C433.073 782.521 437.178 781.514 440.84 780.772C444.502 780.031 452.81 778.264 459.302 776.844C472.799 773.895 482.584 771.977 494.356 769.975C498.881 769.206 505.964 767.93 510.095 767.141C514.226 766.351 520.504 765.257 524.045 764.71C527.586 764.162 536.922 762.705 544.792 761.473C594.889 753.627 623.385 750.085 646.02 748.894C650.545 748.655 655.213 748.343 656.394 748.2C657.574 748.058 672.544 747.539 689.659 747.047C721.166 746.143 764.261 746.825 786.003 748.573C804.031 750.022 812.6 750.875 819.054 751.862C823.995 752.617 826.011 752.677 826.716 752.092C828.541 750.578 834.785 732.829 843.053 705.647C847.148 692.185 853.136 664.007 855.973 644.846C859.532 620.808 862.63 590.83 861.783 588.622C861.457 587.772 845.773 587.646 756.75 587.779C699.193 587.866 645.502 588.107 637.436 588.316ZM657.109 815.108C653.961 815.418 646.074 816.037 639.582 816.483C612.563 818.34 591.176 820.518 576.269 822.931C571.548 823.696 566.236 824.515 564.465 824.751C562.695 824.988 557.705 825.804 553.376 826.566C549.048 827.327 539.551 828.93 532.272 830.126C512.946 833.303 491.194 837.78 464.695 844.034C458.808 845.424 453.898 846.56 453.785 846.56C453.019 846.56 453.89 849.208 455.606 852.093C456.721 853.968 459.637 858.881 462.086 863.012C466.989 871.281 486.84 900.099 496.709 913.277C515.98 939.006 553.375 979.167 587 1010.25C594.083 1016.79 601.422 1023.59 603.31 1025.35C608.967 1030.62 610.05 1031.13 614.901 1030.78C624.628 1030.09 626.215 1029.44 636.257 1022.06C657.518 1006.42 678.499 988.457 689.096 976.806C691.964 973.654 698.198 966.797 702.952 961.57C713.209 950.29 727.778 932.803 735.958 921.953C759.34 890.942 769.395 875.973 787.229 845.635C790.811 839.541 799.83 822.084 799.83 821.246C799.83 820.317 796.406 819.758 779.442 817.918C754.999 815.269 745.753 814.872 704.683 814.71C681.665 814.619 660.257 814.797 657.109 815.108ZM870.001 836.043C866.175 844.018 856.37 862.599 853.127 868.019C851.833 870.183 848.794 875.333 846.375 879.464C838.948 892.144 824.694 913.387 811.499 931.438C796.635 951.774 789.321 961.095 770.678 983.457C767.432 987.35 764.776 990.813 764.776 991.15C764.776 992.524 767.173 991.572 772.799 987.967C776.059 985.879 782.589 981.958 787.311 979.255C821.271 959.814 844.773 944.292 863.143 929.171C868.258 924.961 874.617 919.765 877.274 917.625C879.931 915.485 882.668 913.164 883.355 912.468C884.043 911.772 887.045 909.236 890.028 906.832C901.886 897.273 923.223 874.695 936.221 857.956C940.592 852.324 947.917 841.308 947.917 840.364C947.917 839.993 946.228 839.309 944.162 838.842C935.65 836.922 913.237 833.015 906.671 832.309C897.166 831.286 875.875 829.385 874.37 829.426C873.561 829.447 872.11 831.643 870.001 836.043ZM379.893 867.016C377.335 867.961 367.999 871.194 359.146 874.201C336.707 881.823 326.635 885.3 315.865 889.142C310.75 890.967 305.76 892.716 304.776 893.028C301.938 893.931 291.253 898.485 286.265 900.919C283.756 902.143 278.122 904.756 273.745 906.725C264.545 910.865 254.575 916.136 251.476 918.498C250.294 919.4 248.443 920.474 247.363 920.885C243.846 922.221 243.674 922.02 258.918 934.466C271.828 945.007 294.716 960.956 309.069 969.414C327.956 980.544 363.086 996.668 387.405 1005.37C425.915 1019.15 444.174 1024.24 473.252 1029.29C487.856 1031.83 510.254 1033.77 512.056 1032.65C512.487 1032.38 508.05 1027.25 501.757 1020.74C489.919 1008.48 471.629 987.615 463.512 977.102C460.778 973.561 454.19 965.192 448.873 958.504C438.828 945.871 431.43 935.507 419.002 916.659C414.982 910.561 409.915 902.997 407.745 899.85C402.874 892.791 395.701 881.369 390.336 872.132C388.108 868.297 385.893 865.189 385.414 865.227C384.935 865.265 382.45 866.07 379.893 867.016Z" fill="#8B94B3"/>
</svg>
